#!OML:ASF E:\emotionWalksFemale\Project 1\Capture day 1\Session 1\Female1.ASF
:FULLY-SPECIFIED
:DEGREES
1614
root -7.92032 15.6585 -10.7506 -544.479 13.5389 185.605
lowerback 4.04522 0.689099 -1.00658
upperback -5.8226 1.02889 -0.452063
thorax -8.39299 0.64128 -0.0412635
lowerneck -13.7023 -3.33243 -4.03436
upperneck 25.6384 -4.31955 6.23766
head 10.7323 -1.15527 2.44538
rclavicle -9.14409e-015 3.18055e-015
rhumerus 25.9754 15.5467 -35.0312
rradius 29.5317
rwrist 18.5514
rhand -5.28847 -38.0241
rfingers 7.12502
rthumb 20.5162 -426.96
lclavicle -9.14409e-015 3.18055e-015
lhumerus 23.2539 -8.32342 51.3197
lradius 27.579
lwrist -34.4373
lhand -11.1528 -49.1509
lfingers 7.12502
lthumb 14.8733 -19.7048
rfemur 1.1576 0.746671 17.9826
rtibia 51.2344
rfoot -1.17196 -5.54307
rtoes -1.78698
lfemur -4.14453 -26.5584 -18.0475
ltibia 22.7619
lfoot -29.1465 29.5422
ltoes 27.1001
1615
root -7.95575 15.6693 -10.8237 -544.38 13.6128 185.924
lowerback 4.25705 0.680313 -0.995792
upperback -5.8819 1.01832 -0.415281
thorax -8.58278 0.637392 -0.0120488
lowerneck -13.4112 -3.32726 -3.98874
upperneck 25.5751 -4.31162 6.22347
head 10.6494 -1.14985 2.43463
rclavicle -9.93923e-015 -4.45278e-014
rhumerus 25.861 15.7327 -34.7959
rradius 29.6623
rwrist 18.0725
rhand -5.4847 -37.7955
rfingers 7.12502
rthumb 20.3276 -426.752
lclavicle -9.93923e-015 -4.45278e-014
lhumerus 23.2488 -8.51283 51.2814
lradius 27.6596
lwrist -34.3392
lhand -11.3601 -49.3285
lfingers 7.12502
lthumb 14.6735 -19.8678
rfemur 0.151064 0.399518 18.1587
rtibia 51.8344
rfoot -2.54299 -6.36101
rtoes -1.68304
lfemur -3.87942 -26.2711 -17.955
ltibia 22.7072
lfoot -29.1344 29.4666
ltoes 27.4095
1616
root -7.99084 15.6785 -10.8961 -544.343 13.6389 186.247
lowerback 4.52702 0.64876 -0.952471
upperback -5.89092 0.976416 -0.348605
thorax -8.75211 0.614735 0.0345104
lowerneck -13.3283 -3.20732 -3.96248
upperneck 25.62 -4.12515 6.16532
head 10.636 -1.06645 2.43584
rclavicle 3.37934e-014 4.6118e-014
rhumerus 25.9492 15.7444 -34.69
rradius 29.6239
rwrist 17.8107
rhand -5.6595 -37.7758
rfingers 7.12502
rthumb 20.1596 -426.75
lclavicle 3.37934e-014 4.6118e-014
lhumerus 23.464 -8.49748 51.4192
lradius 27.4015
lwrist -34.3054
lhand -11.565 -49.2393
lfingers 7.12502
lthumb 14.4762 -19.7643
rfemur -0.712766 0.0517987 18.3711
rtibia 52.1657
rfoot -3.85517 -7.22143
rtoes -1.13645
lfemur -3.60905 -26.0251 -17.8816
ltibia 22.7883
lfoot -29.7696 29.2268
ltoes 25.0258
1617
root -8.02528 15.6867 -10.9711 -544.267 13.6186 186.521
lowerback 4.60915 0.582302 -0.966586
upperback -5.86159 0.886515 -0.268349
thorax -8.76932 0.5728 0.137411
lowerneck -13.3227 -3.22619 -4.09494
upperneck 25.5858 -4.12372 6.15106
head 10.6249 -1.08562 2.45206
rclavicle -1.59028e-014 -3.65764e-014
rhumerus 26.1164 15.6125 -34.7438
rradius 29.5287
rwrist 17.9362
rhand -5.68146 -37.8135
rfingers 7.12502
rthumb 20.1385 -426.79
lclavicle -1.59028e-014 -3.65764e-014
lhumerus 23.3585 -10.1466 50.1833
lradius 28.0815
lwrist -32.0464
lhand -11.4539 -48.3639
lfingers 7.12502
lthumb 14.5832 -18.8965
rfemur -1.54956 -0.359001 18.5195
rtibia 52.246
rfoot -5.16088 -7.88783
rtoes -2.17313
lfemur -3.4126 -25.9475 -17.894
ltibia 22.9741
lfoot -30.0747 29.4046
ltoes 23.3745
1618
root -8.05829 15.6894 -11.0517 -544.329 13.4977 186.717
lowerback 4.63563 0.527413 -1.00847
upperback -5.75105 0.795775 -0.324168
thorax -8.66312 0.524686 0.11448
lowerneck -13.2183 -3.39689 -4.16604
upperneck 25.4206 -4.3874 6.25353
head 10.5642 -1.21063 2.4625
rclavicle -4.77083e-015 2.06736e-014
rhumerus 25.9959 15.2584 -35.0261
rradius 29.481
rwrist 18.2363
rhand -5.61424 -37.6839
rfingers 7.12502
rthumb 20.2031 -426.653
lclavicle -4.77083e-015 2.06736e-014
lhumerus 23.4503 -10.8893 49.6078
lradius 28.4895
lwrist -31.1107
lhand -11.2483 -47.8683
lfingers 7.12502
lthumb 14.7813 -18.4154
rfemur -2.14583 -0.886357 18.5529
rtibia 52.1151
rfoot -6.36206 -8.32674
rtoes -3.88812
lfemur -3.0731 -25.9189 -18.0732
ltibia 23.1616
lfoot -30.4304 29.2735
ltoes 23.4201
1619
root -8.08935 15.6887 -11.1344 -544.473 13.3439 186.925
lowerback 4.57595 0.287279 -1.18146
upperback -5.80032 0.475705 -0.15668
thorax -8.68103 0.387929 0.426738
lowerneck -12.2116 -3.19224 -4.13811
upperneck 25.166 -4.02437 6.02709
head 10.2451 -1.07667 2.42583
rclavicle 0 -2.06736e-014
rhumerus 26.0777 15.6087 -35.2307
rradius 29.4907
rwrist 18.4379
rhand -5.49056 -37.6129
rfingers 7.12502
rthumb 20.322 -426.57
lclavicle 0 -2.06736e-014
lhumerus 22.8199 -10.5118 49.9702
lradius 28.5175
lwrist -31.5753
lhand -11.2068 -47.9149
lfingers 7.12502
lthumb 14.8213 -18.4649
rfemur -2.60098 -1.38285 18.5966
rtibia 51.8113
rfoot -7.44625 -8.48842
rtoes -4.8404
lfemur -2.58339 -26.0375 -18.298
ltibia 23.3113
lfoot -31.2982 28.646
ltoes 25.9723
1620
root -8.12003 15.69 -11.2116 -544.526 13.1442 187.158
lowerback 4.65596 0.366757 -1.07644
upperback -5.40533 0.546719 -0.348786
thorax -8.29696 0.392858 0.161435
lowerneck -13.5057 -3.39246 -3.75923
upperneck 25.4332 -4.43052 6.00107
head 10.6114 -1.22511 2.29259
rclavicle -1.27222e-014 -3.97569e-014
rhumerus 26.0088 14.3949 -35.5882
rradius 29.2745
rwrist 18.7583
rhand -5.36621 -37.7382
rfingers 7.12502
rthumb 20.4415 -426.682
lclavicle -1.27222e-014 -3.97569e-014
lhumerus 23.8791 -10.6572 49.7554
lradius 28.4282
lwrist -31.3528
lhand -11.2133 -47.8231
lfingers 7.12502
lthumb 14.815 -18.3727
rfemur -3.19045 -1.8387 18.6939
rtibia 51.3697
rfoot -8.50203 -8.3666
rtoes -5.36393
lfemur -2.21208 -26.2087 -18.4295
ltibia 23.4186
lfoot -32.0156 28.1547
ltoes 27.3139
1621
root -8.1487 15.6913 -11.287 -544.589 12.9086 187.166
lowerback 4.7486 0.33642 -1.29722
upperback -5.33514 0.477871 -0.384269
thorax -8.27645 0.368643 0.256036
lowerneck -13.7033 -3.55189 -4.08132
upperneck 25.5331 -4.63903 6.2139
head 10.714 -1.32247 2.3971
rclavicle -5.56597e-015 2.38542e-014
rhumerus 25.8733 14.2288 -35.5145
rradius 29.231
rwrist 18.7196
rhand -5.44281 -37.7062
rfingers 7.12502
rthumb 20.3679 -426.658
lclavicle -5.56597e-015 2.38542e-014
lhumerus 23.9785 -11.1782 49.547
lradius 28.5977
lwrist -30.7879
lhand -11.1687 -47.9755
lfingers 7.12502
lthumb 14.858 -18.5282
rfemur -3.81763 -2.30246 18.5576
rtibia 50.8205
rfoot -9.51274 -8.0443
rtoes -6.18829
lfemur -1.91652 -26.2766 -18.7529
ltibia 23.5061
lfoot -32.2938 28.0233
ltoes 25.9638
1622
root -8.17555 15.691 -11.3564 -544.559 12.6097 187.118
lowerback 4.72589 0.130623 -1.74413
upperback -5.81217 0.21343 -0.159552
thorax -8.7814 0.297128 0.769908
lowerneck -11.5972 -3.50048 -4.9954
upperneck 25.172 -4.34565 6.38494
head 10.1774 -1.2613 2.66666
rclavicle -2.42517e-014 3.81667e-014
rhumerus 25.4723 15.4755 -35.086
rradius 29.4609
rwrist 18.4372
rhand -5.50983 -37.7698
rfingers 7.12502
rthumb 20.3035 -426.729
lclavicle -2.42517e-014 3.81667e-014
lhumerus 22.7545 -11.465 50.2507
lradius 28.6786
lwrist -30.9288
lhand -11.091 -48.4272
lfingers 7.12502
lthumb 14.9328 -18.9855
rfemur -4.54679 -2.82447 18.3699
rtibia 50.1734
rfoot -10.4695 -7.63709
rtoes -8.16621
lfemur -1.77352 -26.3477 -19.0608
ltibia 23.5912
lfoot -32.5826 28.0123
ltoes 23.8406
